<?xml version="1.0" encoding="UTF-8"?>
<svg width="82px" height="28px" viewBox="0 0 82 28" version="1.1" xmlns="http://www.w3.org/2000/svg" xmlns:xlink="http://www.w3.org/1999/xlink">
    <title>logo</title>
    <defs>
        <polygon id="path-1" points="0 0.545903876 25.4078589 0.545903876 25.4078589 8.89922481 0 8.89922481"></polygon>
    </defs>
    <g id="页面-1" stroke="none" stroke-width="1" fill="none" fill-rule="evenodd">
        <g id="Market" transform="translate(-120.000000, -29.000000)">
            <g id="Group-12" transform="translate(120.000000, 29.000000)">
                <path d="M74.9943395,12.1504295 C71.4346496,11.3558558 71.4346496,10.4837318 71.4346496,9.7826 C71.4346496,9.63004186 71.4715178,9.23911163 71.814138,8.90984031 C72.3347426,8.40957674 73.3969287,8.16484806 74.8036419,8.22205736 C77.1810062,8.31867752 77.5700295,9.41137519 77.5973628,10.414445 C77.6018124,10.7176543 77.8490837,10.960476 78.1516574,10.960476 L80.8137969,10.960476 C81.1144636,10.960476 81.3572853,10.714476 81.3528357,10.414445 C81.3096109,7.64170078 79.6124016,4.65791783 74.9555643,4.46912713 C72.4478899,4.36869302 70.5142155,4.95095659 69.212386,6.20129767 C68.2372853,7.1369876 67.6785411,8.44263101 67.6785411,9.7826 C67.6785411,13.8457318 71.1511457,15.1412047 74.1756109,15.8169101 C77.7353008,16.6114837 77.7353008,17.2712977 77.7353008,18.1841039 C77.7353008,18.362724 77.6876264,18.7091581 77.3647116,19.0193597 C77.0443395,19.3270186 76.1989132,19.8317318 74.134293,19.7446465 C72.8617039,19.6918868 71.1835643,19.4001194 71.1072853,17.5528946 C71.1072853,17.5497163 71.1072853,17.544631 71.1066496,17.5382744 C71.100293,17.242693 70.8568357,17.0068636 70.5606186,17.0068636 L67.8832233,17.0068636 C67.5831922,17.0068636 67.3410062,17.2522279 67.3460128,17.5528946 C67.3988512,20.3205535 69.1608977,23.2973442 73.9785566,23.4982124 C74.1838744,23.5058403 74.3847426,23.5102899 74.5824326,23.5102899 C76.9229287,23.5102899 78.732014,22.9127705 79.9651922,21.7298093 C80.9358434,20.798569 81.492045,19.5062744 81.492045,18.1841039 C81.492045,14.3803209 78.894107,13.0212822 74.9943395,12.1504295" id="Fill-1" fill="#000000"></path>
                <path d="M59.2856822,4.93786202 C59.2055891,4.72491628 59.0021783,4.58316434 58.7739767,4.58316434 L54.981,4.58316434 C54.7527984,4.58316434 54.5487519,4.72491628 54.4686589,4.93849767 L47.8317442,22.7121566 C47.6982558,23.0687612 47.9626899,23.4495209 48.3440853,23.4495209 L51.2916357,23.4495209 C51.5198372,23.4495209 51.7238837,23.307769 51.8033411,23.0941876 L56.8803488,9.49935039 L59.6963178,17.0064822 L56.5135736,17.0064822 C56.2853721,17.0064822 56.0813256,17.1482341 56.0012326,17.3618155 L54.9701938,20.1237535 C54.8367054,20.4803581 55.1011395,20.8611178 55.4818992,20.8611178 L61.1424419,20.8611178 L61.9802403,23.0948233 C62.0603333,23.307769 62.2643798,23.4495209 62.4919457,23.4495209 L65.4420388,23.4495209 C65.8234341,23.4495209 66.0872326,23.0681256 65.9531085,22.7115209 L59.2856822,4.93786202 Z" id="Fill-3" fill="#000000"></path>
                <path d="M42.3810961,17.9024434 C42.3696543,18.6836682 42.1363674,18.8807225 41.9971581,18.998955 L41.9838093,19.0091256 L41.9710961,19.0205674 C41.5369411,19.3936992 40.8059333,19.5882109 39.7990496,19.5996527 L36.7701349,19.5996527 L36.7701349,8.43366822 L39.7990496,8.43366822 C40.8059333,8.44511008 41.5369411,8.64025736 41.9717318,9.01338915 L41.9838093,9.02419535 L41.9971581,9.03500155 C42.1363674,9.15259845 42.3696543,9.34965271 42.3810961,10.1302419 L42.3810961,17.9024434 Z M44.4832202,6.08935814 C43.3326775,5.10090853 41.7772202,4.59746667 39.8181194,4.57966822 L33.4621659,4.57966822 C33.1602279,4.57966822 32.9154992,4.8243969 32.9154992,5.12569922 L32.9154992,22.9076217 C32.9154992,23.2095597 33.1602279,23.4536527 33.4621659,23.4536527 L39.8181194,23.4536527 C41.7772202,23.4358543 43.3326775,22.9330481 44.4832202,21.9439628 C45.6331271,20.9733116 46.2172977,19.634614 46.2357318,17.9265984 L46.2357318,10.1067225 C46.2172977,8.39934264 45.6331271,7.0600093 44.4832202,6.08935814 L44.4832202,6.08935814 Z" id="Fill-5" fill="#000000"></path>
                <g id="Group-9" transform="translate(0.000000, 19.069767)">
                    <mask id="mask-2" fill="white">
                        <use xlink:href="#path-1"></use>
                    </mask>
                    <g id="Clip-8"></g>
                    <path d="M-6.35658915e-05,3.64537674 L0.00247906977,3.64219845 C0.882231008,2.38931473 2.02196744,1.34174884 3.34286667,0.569423256 L3.3841845,0.545903876 C5.97385891,3.06057054 9.33776589,4.31790388 12.7029442,4.31790388 C16.0674868,4.31790388 19.4320295,3.06057054 22.0229752,0.545903876 L22.0598434,0.567516279 C23.3845566,1.34047752 24.5262,2.39058605 25.4078589,3.64537674 C21.904107,7.14785736 17.3051147,8.89973333 12.7035798,8.89973333 C8.10331628,8.89973333 3.5017814,7.14785736 -6.35658915e-05,3.64537674" id="Fill-7" fill="#2471FE" mask="url(#mask-2)"></path>
                </g>
                <path d="M12.7034527,15.4398372 C9.71013488,15.4398372 7.27428992,13.0046279 7.27428992,10.0113101 C7.27428992,7.01799225 9.71013488,4.58278295 12.7034527,4.58278295 C15.6967705,4.58278295 18.1319798,7.01799225 18.1319798,10.0113101 C18.1319798,13.0046279 15.6967705,15.4398372 12.7034527,15.4398372 M22.714445,0.000317829457 L12.7034527,0.000317829457 C7.1833907,0.000317829457 2.69182481,4.4906124 2.69182481,10.0113101 C2.69182481,15.5313721 7.1833907,20.0223023 12.7034527,20.0223023 C18.2235147,20.0223023 22.714445,15.5313721 22.714445,10.0113101 C22.714445,7.76044186 21.9669101,5.68056589 20.7083054,4.00751163 C21.9262279,3.09406977 22.714445,1.63904651 22.714445,0.000317829457" id="Fill-10" fill="#00DF9B"></path>
            </g>
        </g>
    </g>
</svg>