<svg xmlns="http://www.w3.org/2000/svg" xmlns:xlink="http://www.w3.org/1999/xlink" viewBox="0 0 277.54 238.85"><defs><style>.cls-1{opacity:0.5;}.cls-2{fill:url(#未命名的渐变_353);}.cls-3{fill:url(#未命名的渐变_353-2);}.cls-4{fill:url(#未命名的渐变_353-3);}.cls-5{fill:url(#未命名的渐变_353-4);}.cls-6{fill:url(#未命名的渐变_353-5);}.cls-7{fill:url(#未命名的渐变_353-6);}.cls-8{fill:url(#未命名的渐变_353-7);}.cls-9{fill:url(#未命名的渐变_353-8);}.cls-10{fill:url(#未命名的渐变_353-9);}.cls-11{fill:url(#未命名的渐变_353-10);}.cls-12{fill:url(#未命名的渐变_353-11);}.cls-13{fill:url(#未命名的渐变_353-12);}.cls-14{fill:url(#未命名的渐变_353-13);}.cls-15{fill:url(#未命名的渐变_353-14);}.cls-16{fill:url(#未命名的渐变_353-15);}.cls-17{fill:url(#未命名的渐变_353-16);}.cls-18{fill:url(#未命名的渐变_353-17);}.cls-19{fill:url(#未命名的渐变_353-18);}.cls-20{fill:url(#未命名的渐变_353-19);}.cls-21{fill:url(#未命名的渐变_353-20);}.cls-22{fill:none;}.cls-23{fill:url(#未命名的渐变_353-21);}.cls-24{fill:url(#未命名的渐变_353-22);}</style><linearGradient id="未命名的渐变_353" x1="79.58" y1="11.48" x2="211.43" y2="203.39" gradientUnits="userSpaceOnUse"><stop offset="0.09" stop-color="#7c2dfc"/><stop offset="1" stop-color="#2483ff"/></linearGradient><linearGradient id="未命名的渐变_353-2" x1="49.03" y1="32.47" x2="180.89" y2="224.38" xlink:href="#未命名的渐变_353"/><linearGradient id="未命名的渐变_353-3" x1="43.59" y1="36.2" x2="175.45" y2="228.11" xlink:href="#未命名的渐变_353"/><linearGradient id="未命名的渐变_353-4" x1="142.7" y1="223.85" x2="148.65" y2="232.51" xlink:href="#未命名的渐变_353"/><linearGradient id="未命名的渐变_353-5" x1="106.7" y1="183.85" x2="112.65" y2="192.51" xlink:href="#未命名的渐变_353"/><linearGradient id="未命名的渐变_353-6" x1="110.7" y1="214.85" x2="116.65" y2="223.51" xlink:href="#未命名的渐变_353"/><linearGradient id="未命名的渐变_353-7" x1="11.82" y1="58.03" x2="143.68" y2="249.94" xlink:href="#未命名的渐变_353"/><linearGradient id="未命名的渐变_353-8" x1="52.64" y1="29.99" x2="184.49" y2="221.9" xlink:href="#未命名的渐变_353"/><linearGradient id="未命名的渐变_353-9" x1="19.39" y1="52.83" x2="151.25" y2="244.74" xlink:href="#未命名的渐变_353"/><linearGradient id="未命名的渐变_353-10" x1="78.38" y1="12.3" x2="210.23" y2="204.21" xlink:href="#未命名的渐变_353"/><linearGradient id="未命名的渐变_353-11" x1="51.28" y1="30.92" x2="183.13" y2="222.83" xlink:href="#未命名的渐变_353"/><linearGradient id="未命名的渐变_353-12" x1="49.12" y1="32.4" x2="180.98" y2="224.31" xlink:href="#未命名的渐变_353"/><linearGradient id="未命名的渐变_353-13" x1="77.88" y1="12.64" x2="209.74" y2="204.55" xlink:href="#未命名的渐变_353"/><linearGradient id="未命名的渐变_353-14" x1="139.42" y1="-29.64" x2="271.28" y2="162.27" xlink:href="#未命名的渐变_353"/><linearGradient id="未命名的渐变_353-15" x1="84.2" y1="8.3" x2="216.06" y2="200.21" xlink:href="#未命名的渐变_353"/><linearGradient id="未命名的渐变_353-16" x1="93.08" y1="2.2" x2="224.94" y2="194.11" xlink:href="#未命名的渐变_353"/><linearGradient id="未命名的渐变_353-17" x1="70.62" y1="17.63" x2="202.48" y2="209.54" xlink:href="#未命名的渐变_353"/><linearGradient id="未命名的渐变_353-18" x1="92.45" y1="2.63" x2="224.31" y2="194.54" xlink:href="#未命名的渐变_353"/><linearGradient id="未命名的渐变_353-19" x1="165.15" y1="-47.32" x2="297.01" y2="144.59" xlink:href="#未命名的渐变_353"/><linearGradient id="未命名的渐变_353-20" x1="44.8" y1="35.37" x2="176.65" y2="227.28" xlink:href="#未命名的渐变_353"/><linearGradient id="未命名的渐变_353-21" x1="73.87" y1="15.4" x2="205.72" y2="207.31" xlink:href="#未命名的渐变_353"/><linearGradient id="未命名的渐变_353-22" x1="107.22" y1="-7.52" x2="239.08" y2="184.39" xlink:href="#未命名的渐变_353"/></defs><g id="_图层_2" data-name="&lt;图层&gt;"><g id="ta"><polygon class="cls-2" points="167.1 118.87 160.8 129.85 154.62 140.63 154.58 140.63 160.78 129.85 167.1 118.87"/><polygon class="cls-3" points="115.19 130.52 115.18 130.53 103.19 109.63 102.83 109 102.84 109 103.2 109.63 115.19 130.52"/><polygon class="cls-4" points="109.39 133.64 109.31 133.64 97.62 113.26 97.11 112.37 97.13 112.33 97.65 113.22 109.39 133.64"/><circle class="cls-5" cx="147.39" cy="230.67" r="2.5"/><circle class="cls-6" cx="111.39" cy="190.67" r="2.5"/><circle class="cls-7" cx="115.39" cy="221.67" r="2.5"/><path class="cls-8" d="M170.43,238.85H95l-.16-.28-4-7-4.56-8h23a6.51,6.51,0,1,0,0-4H84l-23-40h75.46l16.64,29H124.19l-7.87-13.74a6.43,6.43,0,0,0,1.57-4.22,6.5,6.5,0,1,0-6.5,6.5,6.24,6.24,0,0,0,1.51-.18l9,15.64h33.52l9.49,16.54H153.71a6.49,6.49,0,1,0-.32,4h13.78Z"/></g><polygon class="cls-9" points="111.76 4 75.26 67.64 1.53 67.64 38.04 4 111.76 4"/><polygon class="cls-10" points="109.43 133.85 33.97 133.85 33.85 133.64 0 74.63 75.46 74.63 77.31 77.85 77.31 77.86 78.43 79.81 78.96 80.73 91.53 102.64 93.61 106.27 95.54 109.63 97.11 112.37 97.62 113.26 109.31 133.64 109.43 133.85"/><polygon class="cls-11" points="119.71 74.9 133.42 98.73 131.18 102.64 127.53 109 127.17 109.63 115.19 130.52 103.2 109.63 102.84 109 101.46 106.6 99.19 102.64 97.45 99.6 83.12 74.63 83.11 74.63 81.21 71.31 83.32 67.64 118.58 6.17 134.86 34.56 119.51 61.25 115.83 67.64 115.54 67.64 115.69 67.9 119.56 74.63 119.71 74.9"/><polygon class="cls-12" points="101.46 106.6 99.18 102.64 97.44 99.61 83.12 74.63 97.45 99.6 99.19 102.64 101.46 106.6"/><polygon class="cls-13" points="115.19 130.52 115.18 130.53 103.19 109.63 102.83 109 101.46 106.6 102.84 109 103.2 109.63 115.19 130.52"/><polygon class="cls-14" points="115.83 67.64 115.69 67.9 115.54 67.64 115.83 67.64"/><polygon class="cls-15" points="236.76 0 200.26 63.64 126.53 63.64 139.04 41.84 163.04 0 236.76 0"/><polygon class="cls-16" points="167.1 118.87 160.8 129.85 160.78 129.85 167.1 118.87"/><polygon class="cls-17" points="172.41 109.63 167.39 118.37 172.4 109.63 172.41 109.63"/><polygon class="cls-18" points="213.34 170.74 176.18 235.53 142.21 176.31 168.86 129.85 178.88 112.38 179.34 111.59 189.83 129.85 213.34 170.74"/><polygon class="cls-19" points="178.88 112.38 168.86 129.85 168.83 129.85 178.88 112.38"/><polygon class="cls-20" points="277.54 61.39 240.18 126.53 206.21 67.31 243.58 2.17 277.54 61.39"/><polygon class="cls-21" points="172.4 109.63 167.39 118.37 167.1 118.87 160.78 129.85 154.58 140.63 154.62 140.63 136.26 172.64 62.53 172.64 80.89 140.63 117.84 140.63 119.42 137.89 119.42 137.88 121.86 133.64 135.68 109.63 172.4 109.63"/><line class="cls-22" x1="154.58" y1="140.63" x2="139.89" y2="166.17"/><line class="cls-22" x1="172.41" y1="109.63" x2="167.39" y2="118.37"/><polygon class="cls-23" points="143.89 173.17 168.83 129.85 178.88 112.38 143.89 173.17"/><line class="cls-22" x1="179.58" y1="111.17" x2="179.34" y2="111.59"/><polygon class="cls-24" points="234.43 129.85 197.46 129.85 185.85 109.63 183.17 104.95 181.84 102.64 143.36 102.64 141.54 99.46 137.52 92.45 137.27 92.02 127.29 74.63 125 70.63 200.46 70.63 234.43 129.85"/><line class="cls-22" x1="119.13" y1="75.2" x2="119.11" y2="75.16"/></g></svg>