<svg xmlns="http://www.w3.org/2000/svg" width="78" height="16" viewBox="0 0 388.4 75.75"><polygon points="118.71 23.65 118.71 11.65 85.21 11.65 85.21 36.05 113.41 36.05 113.41 42.55 85.21 42.55 85.21 68.55 118.71 68.55 118.71 56.35 125.31 56.35 125.31 75.05 68.9 75.05 68.9 68.55 77.6 68.55 77.6 11.65 68.9 11.65 68.9 5.15 125.31 5.15 125.31 23.65 118.71 23.65"></polygon><polygon points="201.71 5.15 201.71 11.65 192.61 11.65 169.11 75.75 163.02 75.75 138.71 11.65 129.6 11.65 129.6 5.15 154.6 5.15 154.6 11.65 146.55 11.65 166.49 63.8 185.68 11.65 177.81 11.65 177.81 5.15 201.71 5.15"></polygon><polygon points="255.7 23.65 255.7 11.65 222.2 11.65 222.2 36.05 250.4 36.05 250.4 42.55 222.2 42.55 222.2 68.55 255.7 68.55 255.7 56.35 262.3 56.35 262.3 75.05 205.9 75.05 205.9 68.55 214.6 68.55 214.6 11.65 205.9 11.65 205.9 5.15 262.3 5.15 262.3 23.65 255.7 23.65"></polygon><path d="M343.4,69.55h9.4V43.45L332,10.65h-8.8V6.15h24.2v4.5h-8.9l17.6,27.9,17.7-27.9H365V6.15h22.4v4.5h-8.2l-20.8,32.8v26.1h9.7v4.5H343.4Z"></path><path d="M369.1,75.05H342.4v-6.5h9.4V43.74L331.45,11.65H322.2V5.15h26.2v6.5h-8.09l15.79,25,15.88-25h-8V5.15h24.4v6.5h-8.65L359.4,43.74V68.55h9.7Zm-24.7-2h22.7v-2.5h-9.7V43.16L378.65,9.65h7.75V7.15H366v2.5h9.62L356.1,40.42,336.69,9.65h9.71V7.15H324.2v2.5h8.35L353.8,43.16V70.55h-9.4Z"></path><path d="M56.09,68.57,37.77,40.87a20.36,20.36,0,0,0,9-1.75c4-2,7.23-4.61,9.2-8.42A22.1,22.1,0,0,0,58.4,20.55,21.1,21.1,0,0,0,52.32,5.72C48.1,1.87,42.81,0,36.17,0H.65V7.67H8.2v61H0v6.4H23.79v-6.4H16.13V41H29L47,68.69H38.72v6.4H64.33v-6.4h-8A.33.33,0,0,1,56.09,68.57Zm-40-61.25H35.77c6,0,10.65,2.39,13,6.51a13.64,13.64,0,0,1-.21,13.45c-2.41,4.09-5.25,6.31-11.56,6.31H16.13Z"></path><path d="M319.17,69,302.09,43.19a18.77,18.77,0,0,0,8.42-1.63c3.73-1.89,6.73-4.29,8.57-7.84a20.74,20.74,0,0,0,2.27-9.46,19.73,19.73,0,0,0-5.7-13.83c-3.93-3.58-8.86-5.33-15-5.33H267.49v7.15h7V69.1h-7.64v6H289v-6h-7.14V43.3h11.95l16.74,25.8H303v6h23.87v-6h-7.44A.32.32,0,0,1,319.17,69ZM281.92,11.92h18.31c5.62,0,9.93,2.24,12.12,6.08a12.7,12.7,0,0,1-.2,12.53c-2.24,3.81-4.89,5.88-10.77,5.88H281.92Z"></path></svg>