<?xml version="1.0" encoding="UTF-8"?>
<svg width="151px" height="32px" viewBox="0 0 151 32" version="1.1" xmlns="http://www.w3.org/2000/svg" xmlns:xlink="http://www.w3.org/1999/xlink">
    <title>编组 14</title>
    <defs>
        <linearGradient x1="84.6169194%" y1="0%" x2="18.6983981%" y2="100%" id="linearGradient-1">
            <stop stop-color="#23D3FF" offset="0%"></stop>
            <stop stop-color="#DCBEDC" offset="54.1165865%"></stop>
            <stop stop-color="#FF1142" offset="100%"></stop>
        </linearGradient>
    </defs>
    <g id="页面-1" stroke="none" stroke-width="1" fill="none" fill-rule="evenodd">
        <g id="桌面端HD备份" transform="translate(-120.000000, -44.000000)">
            <g id="编组-4" transform="translate(120.000000, 40.000000)">
                <g id="编组-14" transform="translate(0.000000, 4.000000)">
                    <g id="编组-17备份-10" fill="url(#linearGradient-1)">
                        <path d="M0,32 C5.91171556e-12,26.4771525 4.4771525,22 10,22 L21,22 L21,32 L0,32 Z M32,22 C32,27.5228475 27.5228475,32 22,32 L22,22 L32,22 Z M22,11 C27.5228475,11 32,15.4771525 32,21 L32,21 L22,21 Z M10,11 L10,21 C4.4771525,21 5.91171556e-12,16.5228475 5.91171556e-12,11 L5.91171556e-12,11 L10,11 Z M32,0 C32,5.5228475 27.5228475,10 22,10 L11,10 L11,0 L32,0 Z M10,0 L10,10 L5.91171556e-12,10 C5.91171556e-12,4.4771525 4.4771525,0 10,0 Z" id="路径-2"></path>
                    </g>
                    <path d="M48.817,25.26 C52.743,25.26 55.499,23.232 55.499,19.618 L55.499,19.566 C55.499,16.394 53.419,15.068 49.727,14.106 C46.581,13.3 45.801,12.91 45.801,11.714 L45.801,11.662 C45.801,10.778 46.607,10.076 48.141,10.076 C49.389,10.076 50.637,10.518 51.963,11.298 C52.275,11.48 52.587,11.584 52.977,11.584 C54.017,11.584 54.849,10.778 54.849,9.738 C54.849,8.958 54.407,8.412 53.965,8.152 C52.327,7.112 50.403,6.54 48.193,6.54 C44.475,6.54 41.823,8.724 41.823,12.026 L41.823,12.078 C41.823,15.692 44.189,16.706 47.855,17.642 C50.897,18.422 51.521,18.942 51.521,19.956 L51.521,20.008 C51.521,21.074 50.533,21.724 48.895,21.724 C47.127,21.724 45.619,21.1 44.241,20.086 C43.981,19.904 43.617,19.722 43.097,19.722 C42.057,19.722 41.225,20.528 41.225,21.568 C41.225,22.192 41.537,22.764 41.979,23.076 C44.007,24.532 46.425,25.26 48.817,25.26 Z M69.357,25.156 C70.449,25.156 71.333,24.272 71.333,23.18 L71.333,15.978 C71.333,12.78 69.591,10.804 66.601,10.804 C64.599,10.804 63.429,11.87 62.519,13.04 L62.519,7.84 C62.519,6.748 61.635,5.864 60.543,5.864 C59.451,5.864 58.567,6.748 58.567,7.84 L58.567,23.18 C58.567,24.272 59.451,25.156 60.543,25.156 C61.635,25.156 62.519,24.272 62.519,23.18 L62.519,17.226 C62.519,15.354 63.481,14.392 64.989,14.392 C66.497,14.392 67.381,15.354 67.381,17.226 L67.381,23.18 C67.381,24.272 68.265,25.156 69.357,25.156 Z M81.603,25.312 C85.945,25.312 89.169,22.062 89.169,18.058 L89.169,18.006 C89.169,14.002 85.971,10.804 81.655,10.804 C77.313,10.804 74.089,14.054 74.089,18.058 L74.089,18.11 C74.089,22.114 77.287,25.312 81.603,25.312 Z M81.655,21.906 C79.471,21.906 77.989,20.112 77.989,18.058 L77.989,18.006 C77.989,15.952 79.341,14.21 81.603,14.21 C83.787,14.21 85.269,16.004 85.269,18.058 L85.269,18.11 C85.269,20.164 83.917,21.906 81.655,21.906 Z M96.917,25.26 C97.879,25.26 98.685,24.714 99.049,23.57 L101.285,16.55 L103.495,23.57 C103.859,24.714 104.665,25.26 105.627,25.26 L105.757,25.26 C106.719,25.26 107.525,24.714 107.941,23.492 L111.451,13.534 C111.503,13.352 111.581,12.988 111.581,12.728 C111.581,11.74 110.827,10.908 109.735,10.908 C108.695,10.908 108.097,11.584 107.837,12.416 L105.653,19.54 L103.443,12.468 C103.157,11.532 102.429,10.882 101.415,10.882 L101.181,10.882 C100.167,10.882 99.439,11.532 99.153,12.468 L96.969,19.514 L94.837,12.442 C94.551,11.532 93.901,10.908 92.913,10.908 C91.743,10.908 91.015,11.792 91.015,12.702 C91.015,13.04 91.119,13.43 91.197,13.664 L94.603,23.492 C95.019,24.714 95.825,25.26 96.787,25.26 L96.917,25.26 Z M130.717,25.156 C131.835,25.156 132.719,24.272 132.719,23.154 L132.719,8.698 C132.719,7.58 131.835,6.696 130.717,6.696 L130.275,6.696 C129.469,6.696 128.897,7.034 128.481,7.71 L123.619,15.614 L118.783,7.736 C118.419,7.138 117.821,6.696 116.963,6.696 L116.521,6.696 C115.403,6.696 114.519,7.58 114.519,8.698 L114.519,23.206 C114.519,24.298 115.377,25.156 116.469,25.156 C117.561,25.156 118.445,24.298 118.445,23.206 L118.445,14.158 L121.903,19.488 C122.319,20.112 122.839,20.502 123.567,20.502 C124.295,20.502 124.815,20.112 125.231,19.488 L128.741,14.08 L128.741,23.154 C128.741,24.246 129.625,25.156 130.717,25.156 Z M143.275,25.312 C145.303,25.312 146.889,24.662 148.111,23.622 C148.397,23.362 148.631,22.972 148.631,22.452 C148.631,21.568 147.981,20.892 147.097,20.892 C146.681,20.892 146.421,20.996 146.135,21.204 C145.329,21.802 144.419,22.14 143.327,22.14 C141.559,22.14 140.311,21.204 139.921,19.41 L147.747,19.41 C148.787,19.41 149.593,18.656 149.593,17.512 C149.593,14.626 147.539,10.804 142.885,10.804 C138.829,10.804 135.995,14.08 135.995,18.058 L135.995,18.11 C135.995,22.374 139.089,25.312 143.275,25.312 Z M145.823,16.94 L139.869,16.94 C140.181,15.146 141.247,13.976 142.885,13.976 C144.549,13.976 145.589,15.172 145.823,16.94 Z" id="ShowMe" fill="#000" fill-rule="nonzero"></path>
                </g>
            </g>
        </g>
    </g>
</svg>