<svg preserveAspectRatio="xMidYMid meet" data-bbox="-0.042 0.05 27.196 30.49" viewBox="-0.042 0.05 27.196 30.49" xmlns="http://www.w3.org/2000/svg" data-type="color" role="presentation" aria-hidden="true" aria-labelledby="svgcid--jblenjpd185g"><title id="svgcid--jblenjpd185g"></title>
    <g>
        <path d="M13.59 30.54a3 3 0 0 1-1.41-.39c-.8-.46-1.6-.93-2.41-1.38a.38.38 0 0 1-.22-.38v-9.16a2.93 2.93 0 0 1 .23-.77 3.22 3.22 0 0 0 .29-.82 2.49 2.49 0 0 0-.9-2.21.87.87 0 0 0-1.52.53 2.43 2.43 0 0 0 .27 1.71 2.34 2.34 0 0 1 .26 1.1v8.15l-.43-.23-1.91-1.1a2 2 0 0 1-1-1.75V16.6a2.64 2.64 0 0 1 .26-.76 3.43 3.43 0 0 0 .33-.89 2.52 2.52 0 0 0-.82-2.11 1 1 0 0 0-1-.31 1 1 0 0 0-.61.9 2.81 2.81 0 0 0 .3 1.63 1.64 1.64 0 0 1 .19.71v9.18a.81.81 0 0 1 0 .15h-.11c-.72-.42-1.46-.82-2.17-1.28a2.67 2.67 0 0 1-1.25-2.37V9.52a7.11 7.11 0 0 1 .05-1 2.71 2.71 0 0 1 1.41-1.91L12.04.47a2.78 2.78 0 0 1 2.94 0c2.45 1.4 4.9 2.82 7.35 4.24l3.3 1.89a2.79 2.79 0 0 1 1.52 2.57v12.07a3.47 3.47 0 0 1-.28 1.53 3 3 0 0 1-1.26 1.3l-5.65 3.25-4.75 2.74-.28.15V18.58a1.46 1.46 0 0 1 .48-1.15.61.61 0 0 1 .7-.18.58.58 0 0 1 .33.62v6.57a2.89 2.89 0 0 0 .19 1 1 1 0 0 0 1.25.58 2.8 2.8 0 0 0 1.33-.85 5.09 5.09 0 0 0 1.44-3.57v-6.29a1.54 1.54 0 0 1 .45-1.14.66.66 0 0 1 .73-.21.6.6 0 0 1 .33.64v6.12a2.15 2.15 0 0 1-.21.79 2.72 2.72 0 0 0-.27 1.58 1 1 0 0 0 .59.88 1 1 0 0 0 1-.27 1.92 1.92 0 0 0 .28-.29 2.59 2.59 0 0 0 .57-1.95 1.59 1.59 0 0 0-.28-.73 1.3 1.3 0 0 1-.31-.86v-6.29a2.91 2.91 0 0 0-.14-.93 1 1 0 0 0-1.42-.66 2.8 2.8 0 0 0-1.24.84 5.16 5.16 0 0 0-1.42 3.61v6.23a1.4 1.4 0 0 1-.59 1.24.53.53 0 0 1-.91-.37 1.93 1.93 0 0 1 0-.34v-6.35a2.73 2.73 0 0 0-.14-.9 1 1 0 0 0-1.43-.65 3 3 0 0 0-1.22.83 5.25 5.25 0 0 0-1.48 3.61v10.41z" fill="#000" data-color="1"></path>
    </g>
</svg>